<?xml version="1.0" encoding="UTF-8" standalone="no"?>
<!DOCTYPE svg PUBLIC "-//W3C//DTD SVG 1.1//EN"
 "http://www.w3.org/Graphics/SVG/1.1/DTD/svg11.dtd">
<!-- Generated by graphviz version 2.38.0 (20140413.2041)
 -->
<!-- Title: rdd Pages: 1 -->
<svg width="478pt" height="288pt"
 viewBox="0.00 0.00 478.00 288.00" xmlns="http://www.w3.org/2000/svg" xmlns:xlink="http://www.w3.org/1999/xlink">
<g id="graph0" class="graph" transform="scale(1 1) rotate(0) translate(4 284)">
<title>rdd</title>
<polygon fill="white" stroke="none" points="-4,4 -4,-284 473.997,-284 473.997,4 -4,4"/>
<g id="clust1" class="cluster"><title>cluster_1</title>
<polygon fill="none" stroke="black" points="125.993,-8 125.993,-136 398.997,-136 398.997,-8 125.993,-8"/>
<text text-anchor="middle" x="262.495" y="-120.8" font-family="Times,serif" font-size="14.00">node 1</text>
</g>
<g id="clust2" class="cluster"><title>cluster_2</title>
<polygon fill="none" stroke="black" points="125.993,-144 125.993,-272 398.997,-272 398.997,-144 125.993,-144"/>
<text text-anchor="middle" x="262.495" y="-256.8" font-family="Times,serif" font-size="14.00">node 2</text>
</g>
<!-- start -->
<g id="node1" class="node"><title>start</title>
<polygon fill="none" stroke="black" points="54,-146 0,-146 0,-110 54,-110 54,-146"/>
<text text-anchor="middle" x="27" y="-123.8" font-family="Times,serif" font-size="14.00">start</text>
</g>
<!-- d1 -->
<g id="node2" class="node"><title>d1</title>
<polygon fill="none" stroke="black" points="207.895,-106 134.026,-106 134.026,-70 207.895,-70 207.895,-106"/>
<text text-anchor="middle" x="170.96" y="-83.8" font-family="Times,serif" font-size="14.00">partition 1</text>
</g>
<!-- start&#45;&gt;d1 -->
<g id="edge1" class="edge"><title>start&#45;&gt;d1</title>
<path fill="none" stroke="black" d="M54.0377,-120.663C73.6486,-115.138 101.035,-107.421 124.265,-100.876"/>
<polygon fill="black" stroke="black" points="125.255,-104.233 133.931,-98.1519 123.357,-97.4952 125.255,-104.233"/>
<text text-anchor="middle" x="89.9966" y="-121.8" font-family="Times,serif" font-size="14.00">Distribute</text>
</g>
<!-- d2 -->
<g id="node3" class="node"><title>d2</title>
<polygon fill="none" stroke="black" points="207.895,-52 134.026,-52 134.026,-16 207.895,-16 207.895,-52"/>
<text text-anchor="middle" x="170.96" y="-29.8" font-family="Times,serif" font-size="14.00">partition 2</text>
</g>
<!-- start&#45;&gt;d2 -->
<g id="edge2" class="edge"><title>start&#45;&gt;d2</title>
<path fill="none" stroke="black" d="M49.2248,-109.757C53.3801,-106.406 57.7644,-103.016 62,-100 83.3552,-84.7924 108.262,-69.4206 128.767,-57.3426"/>
<polygon fill="black" stroke="black" points="130.687,-60.2747 137.556,-52.2083 127.156,-54.2306 130.687,-60.2747"/>
</g>
<!-- d3 -->
<g id="node7" class="node"><title>d3</title>
<polygon fill="none" stroke="black" points="207.895,-242 134.026,-242 134.026,-206 207.895,-206 207.895,-242"/>
<text text-anchor="middle" x="170.96" y="-219.8" font-family="Times,serif" font-size="14.00">partition 3</text>
</g>
<!-- start&#45;&gt;d3 -->
<g id="edge3" class="edge"><title>start&#45;&gt;d3</title>
<path fill="none" stroke="black" d="M45.2603,-146.327C50.4151,-151.356 56.2345,-156.623 62,-161 81.6352,-175.907 105.103,-189.99 125.136,-201.044"/>
<polygon fill="black" stroke="black" points="123.615,-204.201 134.073,-205.902 126.959,-198.051 123.615,-204.201"/>
</g>
<!-- d4 -->
<g id="node8" class="node"><title>d4</title>
<polygon fill="none" stroke="black" points="207.895,-188 134.026,-188 134.026,-152 207.895,-152 207.895,-188"/>
<text text-anchor="middle" x="170.96" y="-165.8" font-family="Times,serif" font-size="14.00">partition 4</text>
</g>
<!-- start&#45;&gt;d4 -->
<g id="edge4" class="edge"><title>start&#45;&gt;d4</title>
<path fill="none" stroke="black" d="M54.0377,-135.703C73.6486,-141.505 101.035,-149.608 124.265,-156.481"/>
<polygon fill="black" stroke="black" points="123.349,-159.86 133.931,-159.341 125.335,-153.147 123.349,-159.86"/>
</g>
<!-- m1 -->
<g id="node4" class="node"><title>m1</title>
<polygon fill="none" stroke="black" points="310.193,-106 256.193,-106 256.193,-70 310.193,-70 310.193,-106"/>
<text text-anchor="middle" x="283.193" y="-83.8" font-family="Times,serif" font-size="14.00">map 1</text>
</g>
<!-- d1&#45;&gt;m1 -->
<g id="edge5" class="edge"><title>d1&#45;&gt;m1</title>
<path fill="none" stroke="black" d="M208.055,-88C220.196,-88 233.741,-88 245.897,-88"/>
<polygon fill="black" stroke="black" points="246.153,-91.5001 256.153,-88 246.153,-84.5001 246.153,-91.5001"/>
<text text-anchor="middle" x="232.061" y="-90.8" font-family="Times,serif" font-size="14.00">map f</text>
</g>
<!-- m2 -->
<g id="node5" class="node"><title>m2</title>
<polygon fill="none" stroke="black" points="310.193,-52 256.193,-52 256.193,-16 310.193,-16 310.193,-52"/>
<text text-anchor="middle" x="283.193" y="-29.8" font-family="Times,serif" font-size="14.00">map 2</text>
</g>
<!-- d2&#45;&gt;m2 -->
<g id="edge6" class="edge"><title>d2&#45;&gt;m2</title>
<path fill="none" stroke="black" d="M208.055,-34C220.196,-34 233.741,-34 245.897,-34"/>
<polygon fill="black" stroke="black" points="246.153,-37.5001 256.153,-34 246.153,-30.5001 246.153,-37.5001"/>
</g>
<!-- r1 -->
<g id="node6" class="node"><title>r1</title>
<polygon fill="none" stroke="black" points="390.899,-106 327.291,-106 327.291,-70 390.899,-70 390.899,-106"/>
<text text-anchor="middle" x="359.095" y="-83.8" font-family="Times,serif" font-size="14.00">reduce 1</text>
</g>
<!-- m1&#45;&gt;r1 -->
<g id="edge9" class="edge"><title>m1&#45;&gt;r1</title>
<path fill="none" stroke="black" d="M310.456,-88C312.563,-88 314.721,-88 316.898,-88"/>
<polygon fill="black" stroke="black" points="317.117,-91.5001 327.117,-88 317.117,-84.5001 317.117,-91.5001"/>
</g>
<!-- r3 -->
<g id="node11" class="node"><title>r3</title>
<polygon fill="none" stroke="black" points="390.899,-242 327.291,-242 327.291,-206 390.899,-206 390.899,-242"/>
<text text-anchor="middle" x="359.095" y="-219.8" font-family="Times,serif" font-size="14.00">reduce 3</text>
</g>
<!-- m1&#45;&gt;r3 -->
<g id="edge10" class="edge"><title>m1&#45;&gt;r3</title>
<path fill="none" stroke="black" d="M294.383,-106.415C299.546,-116.203 305.663,-128.55 310.193,-140 319.919,-164.582 312.899,-174.762 327.193,-197 327.381,-197.292 327.573,-197.583 327.769,-197.872"/>
<polygon fill="black" stroke="black" points="325.258,-200.33 334.316,-205.826 330.663,-195.881 325.258,-200.33"/>
</g>
<!-- m2&#45;&gt;r1 -->
<g id="edge11" class="edge"><title>m2&#45;&gt;r1</title>
<path fill="none" stroke="black" d="M309.213,-52.2819C314.324,-56.0167 319.777,-60.0008 325.117,-63.9031"/>
<polygon fill="black" stroke="black" points="323.213,-66.8464 333.352,-69.9202 327.343,-61.1944 323.213,-66.8464"/>
</g>
<!-- r4 -->
<g id="node12" class="node"><title>r4</title>
<polygon fill="none" stroke="black" points="390.899,-188 327.291,-188 327.291,-152 390.899,-152 390.899,-188"/>
<text text-anchor="middle" x="359.095" y="-165.8" font-family="Times,serif" font-size="14.00">reduce 4</text>
</g>
<!-- m2&#45;&gt;r4 -->
<g id="edge12" class="edge"><title>m2&#45;&gt;r4</title>
<path fill="none" stroke="black" d="M304.126,-52.109C306.43,-54.9036 308.542,-57.8982 310.193,-61 327.072,-92.7016 309.784,-108.587 327.193,-140 327.918,-141.308 328.719,-142.595 329.578,-143.856"/>
<polygon fill="black" stroke="black" points="326.938,-146.158 335.936,-151.751 332.39,-141.767 326.938,-146.158"/>
</g>
<!-- end -->
<g id="node13" class="node"><title>end</title>
<polygon fill="none" stroke="black" points="469.997,-188 415.997,-188 415.997,-152 469.997,-152 469.997,-188"/>
<text text-anchor="middle" x="442.997" y="-165.8" font-family="Times,serif" font-size="14.00">collect</text>
</g>
<!-- r1&#45;&gt;end -->
<g id="edge16" class="edge"><title>r1&#45;&gt;end</title>
<path fill="none" stroke="black" d="M378.272,-106.198C389.512,-117.452 404.108,-132.065 416.494,-144.467"/>
<polygon fill="black" stroke="black" points="414.328,-147.25 423.871,-151.852 419.281,-142.304 414.328,-147.25"/>
</g>
<!-- m3 -->
<g id="node9" class="node"><title>m3</title>
<polygon fill="none" stroke="black" points="310.193,-242 256.193,-242 256.193,-206 310.193,-206 310.193,-242"/>
<text text-anchor="middle" x="283.193" y="-219.8" font-family="Times,serif" font-size="14.00">map 3</text>
</g>
<!-- d3&#45;&gt;m3 -->
<g id="edge7" class="edge"><title>d3&#45;&gt;m3</title>
<path fill="none" stroke="black" d="M208.055,-224C220.196,-224 233.741,-224 245.897,-224"/>
<polygon fill="black" stroke="black" points="246.153,-227.5 256.153,-224 246.153,-220.5 246.153,-227.5"/>
</g>
<!-- m4 -->
<g id="node10" class="node"><title>m4</title>
<polygon fill="none" stroke="black" points="310.193,-188 256.193,-188 256.193,-152 310.193,-152 310.193,-188"/>
<text text-anchor="middle" x="283.193" y="-165.8" font-family="Times,serif" font-size="14.00">map 4</text>
</g>
<!-- d4&#45;&gt;m4 -->
<g id="edge8" class="edge"><title>d4&#45;&gt;m4</title>
<path fill="none" stroke="black" d="M208.055,-170C220.196,-170 233.741,-170 245.897,-170"/>
<polygon fill="black" stroke="black" points="246.153,-173.5 256.153,-170 246.153,-166.5 246.153,-173.5"/>
</g>
<!-- m3&#45;&gt;r3 -->
<g id="edge13" class="edge"><title>m3&#45;&gt;r3</title>
<path fill="none" stroke="black" d="M310.456,-224C312.563,-224 314.721,-224 316.898,-224"/>
<polygon fill="black" stroke="black" points="317.117,-227.5 327.117,-224 317.117,-220.5 317.117,-227.5"/>
</g>
<!-- m4&#45;&gt;r1 -->
<g id="edge14" class="edge"><title>m4&#45;&gt;r1</title>
<path fill="none" stroke="black" d="M300.595,-151.802C310.641,-140.654 323.659,-126.21 334.767,-113.885"/>
<polygon fill="black" stroke="black" points="337.645,-115.919 341.74,-106.148 332.445,-111.233 337.645,-115.919"/>
</g>
<!-- m4&#45;&gt;r4 -->
<g id="edge15" class="edge"><title>m4&#45;&gt;r4</title>
<path fill="none" stroke="black" d="M310.456,-170C312.563,-170 314.721,-170 316.898,-170"/>
<polygon fill="black" stroke="black" points="317.117,-173.5 327.117,-170 317.117,-166.5 317.117,-173.5"/>
</g>
<!-- r3&#45;&gt;end -->
<g id="edge17" class="edge"><title>r3&#45;&gt;end</title>
<path fill="none" stroke="black" d="M387.823,-205.718C394.077,-201.595 400.791,-197.168 407.29,-192.883"/>
<polygon fill="black" stroke="black" points="409.534,-195.596 415.956,-187.169 405.681,-189.752 409.534,-195.596"/>
</g>
<!-- r4&#45;&gt;end -->
<g id="edge18" class="edge"><title>r4&#45;&gt;end</title>
<path fill="none" stroke="black" d="M391.059,-170C395.773,-170 400.675,-170 405.494,-170"/>
<polygon fill="black" stroke="black" points="405.805,-173.5 415.805,-170 405.805,-166.5 405.805,-173.5"/>
</g>
</g>
</svg>
